<svg xmlns="http://www.w3.org/2000/svg" viewBox="0 0 813.24 818.83"><defs><style>.cls-1{fill:#2e4e41;fill-rule:evenodd;}.cls-2{fill:#c8e1cc;}.cls-3{fill:#b2cdb6;}.cls-4{fill:#c0e3f7;}.cls-5{fill:#86c3e4;}</style></defs><title>Recurso 12</title><g id="Capa_2" data-name="Capa 2"><g id="Capa_1-2" data-name="Capa 1"><path class="cls-1" d="M498.49,748.26c12-39.87,28.66-81.82,51.91-119.2,91.76-147.49,226.79-254.43,226.79-254.43s-181,0-291.27,162.19q-9,13.24-16.65,26.7C507.78,437.2,611.44,205.74,611.44,205.74S424,251.79,331.79,550.41c2.66-83.81,15.27-212.33,17.87-275.32,5-121-2.31-227-2.31-227S226.65,180.36,221.56,404.27c-1.3-1.95-2.59-3.9-3.91-5.86C168.17,325.11,92.23,283.17,25.3,259.25v85.39c58.79,54.82,121.18,124,156.68,196.47,8.55,17.45,16.49,35.66,23.87,54.31C150.66,518.77,85.44,476.59,25.3,453.68v100c41.6,37.58,82.93,82.73,112.86,134,7.67,13.15,15.83,28.19,24.33,44.84-42.18-40.21-92-65-137.19-80.16v66.89c21.71,21.09,45,46.27,71,76.92,6.13,7.22,11.92,12.65,17.4,22.6H567c10.87-16.74,23.4-37.44,37.72-54.31C715.56,633.86,786.19,597.1,786.19,597.1S592.75,608.09,498.49,748.26Z"/><path class="cls-2" d="M661.79,749.58c27.17-61.41,79.9-142.36,95-160.88,17.91-22,20.23-23,23-27a3.76,3.76,0,0,0-2.06-6.07c-9.76-3-129.46,78.12-125.55,75.28-51.51,36.52-78.86,84.58-75.76,79.75-14.23,22.2-31.67,66.07-45.86,108.2h90.7A349,349,0,0,0,661.79,749.58Z"/><path class="cls-3" d="M685.83,657.48c28.11-28,15.42-16.4,67.09-71.53,17.93-18.64,28.08-26.21,28.18-28.31s-2.74-2.35-2.32-2.27c-1.87-.08-1.47.72-7.64,6.3-1.89,1.71-10.39,8.85-10.43,8.88-34.66,28.93-58.81,60-91.57,89.69-48.44,43.89-84.6,101.31-113,157.14-.26.47-.52,1-.78,1.45h13.34C620.6,722.48,644.52,698.7,685.83,657.48Z"/><path class="cls-2" d="M767.78,790.34c44.93-57.07,47.18-57.56,44.84-61.07-3.23-3.66-6.39-.62-9.19,1-34,20.23-95.94,46.08-140.26,87l-1.63,1.53H746.1C755.8,806.14,767.8,790.31,767.78,790.34Z"/><path class="cls-3" d="M744.79,795.56c21.12-24.86,36.65-34.39,51.06-48.29,3.83-3.69,5-5.37,12.73-12.71a1.75,1.75,0,0,0-1-3.1,2,2,0,0,0-1.67.42c-27.62,26.41-8.52,8.78-44.52,37.17-30.69,24.21-24,25-54.56,49.78H723A208.17,208.17,0,0,0,744.79,795.56Z"/><path class="cls-2" d="M502,818.83c3.51-6.85,6.9-13.41,11.22-23,44-97.78,31.91-213.36,30.51-316.24-.76-55.33,7.44-85.62-.19-88-3.77-1.16-5.7,2.79-12.66,14.75-49.36,84.84-48.76,81.19-59.05,112.31-36.43,109.88-28.39,226.93-26.22,300.12Z"/><path class="cls-3" d="M484,764.57c30.43-170.67-2.74-68.16,43.84-303.9,2.46-11.54,4.77-14,1.51-14.56-3.64-.64-.21-7.64-33.39,128.26-5.3,21.8-7.68,61.54-8.68,78.9-2.1,36.26-13.42,98.7-24.23,165.56h11.68C477.27,802.93,480.32,784.94,484,764.57Z"/><path class="cls-2" d="M361.82,818.83H424.4c3-148.11-54.68-235.57-66.13-269.43-22.57-66.77-19.41-89.88-22.44-93a3.28,3.28,0,0,0-1.68-.83c-3.37-.59-2.89.68-8,20.19-4.89,18.52-16.61,53.64-17.61,93.92-1.68,67.35,10.16,144.73,50.33,241.8C359.86,814,360.85,816.43,361.82,818.83Z"/><path class="cls-3" d="M388,818.83h12.05c-24.15-114.44-64.16-265.55-63.31-283.39.13-2.69-4.36-2.85-4.48-.17a37.54,37.54,0,0,0,0,8.07C357,692.5,375.59,766.51,388,818.83Z"/><path class="cls-2" d="M244.94,778.43a350.44,350.44,0,0,0,20.47,40.4h71.44a275.59,275.59,0,0,0-10-28.66c-6.12-14.87-8.53-25.65-24.25-54.94-22.12-41.21-31.22-47.59-52.58-70.68-6.89-7.44-18.66-22.72-27.89-32-6.65-6.72-8.13-6.3-8.08-6.3-3.13-.54-5.88,1.33-4.75,6.92C214.63,659.36,234.94,754.57,244.94,778.43Z"/><path class="cls-3" d="M261.39,738.21c6.61,12.53,10,15.27,19.84,36.29,9,19.15,15.85,33.24,21.29,44.33h12c-10.27-20.27-31.25-61.76-27.29-54.44-18.58-34.46-10.86-14.94-27.62-51-4.92-10.58-19.73-34.55-24.32-49.76-.28-.9-1.56-.66-1.43-.64-2,.62,1.33,7.1,5.72,18.81C239.6,681.84,257.27,730.38,261.39,738.21Z"/><path class="cls-4" d="M714.33.13C709.55-3,648,52.89,555.18,88.17c-80.49,30.6-187.22,46.1-246.58,96.06-42.89,36.1-49.17,131-64.14,152-25.81,31.12-68.84,15.06-107.84,46.8-47,38.43-35.49,125-45.73,186.77-4.21,25.52-24.31,45.46-46.54,58.71-6.85,4.09-21.94,10.42-29.84,21.24-25,34.19-13.18,112.25,1.7,151a160.67,160.67,0,0,0,3.22,18.1H182.08a40.47,40.47,0,0,0,2.16-3.89c6.61-15,6.23-28.79,9.48-80.54,4.45-70.16,24.15-50.83,81.11-83.56,40.71-23.32,49.58-47.92,41.49-118.34-4.35-38.07-18.85-48.36-10.86-74.9,1.45-4.77,11.08-24.2,30.61-37.74,13.87-9.63,29.78-15.51,46.13-20.22,45.38-13.08,57.57-48,78.93-79.66,19.9-29.49,54.11-52.41,53.33-51.82,61.1-46,56-38.16,90.48-101.58,11.55-21.24,29.93-43.79,55.72-87.5C701.85,9.24,719.41,3.47,714.33.13Z"/><path class="cls-5" d="M470.08,178.76c-1.87-.2-57.4,38.36-65.46,44.77C318.37,292.91,208.92,431.69,146.72,591c-12,30.83-46.47,101.17-73.44,227.79H93.65c.78-4.53,1.57-10.85,2.39-17,4.11-30.82,49.21-173.67,61.75-204.52,38.81-94.54,53.27-118.75,81.46-161.91C389.38,205.84,490.86,180.87,470.08,178.76Z"/></g></g></svg>