<svg xmlns="http://www.w3.org/2000/svg" viewBox="0 0 928.98 856"><defs><style>.cls-1{fill:#fdf9c8;}.cls-2{fill:#2e4e41;}.cls-3{fill:#cbdfb5;}.cls-4{fill:#c0e3f7;}</style></defs><title>Recurso 13</title><g id="Capa_2" data-name="Capa 2"><g id="Capa_1-2" data-name="Capa 1"><path class="cls-1" d="M888.73,856H918.6c3.46-56.07,10-165.59,10-165.86C928.85,665.89,898.3,785.92,888.73,856Z"/><path class="cls-1" d="M135.43,264.13c39.23,50.79,28,69,120.23,145.18,12.06,9.95,24.57,22.44,35.33,32.77Q259.63,423.92,226.64,406c-1-3.19-6.78-13.77-38.21-36.06C125.52,325.24,63.19,301,63.16,301.37c.08-.83-60.27-24-63.14-11.32-1.31,5.86,59.52,64.33,146.35,91.08q21.91,11.13,43.17,22.38c-77.62-21.64-112-5.74-150.82-16.53-6.64-1.85-11.83-7.91-12.33-3.19C25,396.73,175,444.87,273.36,449.64q22.39,12.86,44,25.81c-1.22-.4-2.44-.79-3.71-1.16-155.5-45-166.12-16.74-230.74-44.53-4-1.74-12.6.44,36.43,25.84,43.4,22.48,70.25,21.11,106.79,30,67.15,16.33,45.12,9.79,89.37,15.05-.24,0,31.87,5.28,53.48,6.74q16.62,10.59,32.68,21.26c-6.75-1.39-15.05-2.84-25.37-4.29-17.35-2.43-30-7.34-47-10.57-34.54-6.58-113.6,3.16-135.29-.12-6.2-1.14-28.95-8.58,2.72,6.4,22.15,10.65,39.28,17,69,16.32,53.38-1.24,124.51,7.15,160.74,9q21.84,15,42.61,30.06c-21.16-10.62-59.93-24.82-140.26-26.64-23.92-.51-72.17,10.21-92.16,6.43-16.88-3.18-22.83-8.13-24.48-5.61-2.5,3.89,41.89,22.72,102.77,27.72,35.27,2.88,48.09-6.26,78.58-2.21,47.62,6.36,83.68,17.51,98.81,17.52q26.79,20.19,51.71,40.6c-29.24-16.5-72.26-34.79-117.41-38.4-27.38-2.2-35.77,3-67.49,1.4-39.74-2-44.42-11.3-47.94-7.88-4.06,4,55.45,32.28,106.17,33.66,11.92.33,20.93-1.91,29.68-2.7C492.9,615.14,555.78,654,581.93,665.4q19.88,17.48,38.35,35.12c-29.51-19.47-85.43-51.42-135.52-54.67.36,0-.79-.91-36.43.45-20.85.79-24.27,4.32-47,.31-5.56-1-11.62-4.89-13.71-2.31-2.81,3.45,4.41,6.55,12.08,11.22,46.45,28.24,94.2,12.36,155.47,35.19.68.37,63.95,25.32,86.77,31.06q14,14.1,27.21,28.29c-11.17-4.27-28.5-10.26-40.73-18-54.65-34.64-114.09-24.82-146.69-34.27a72.38,72.38,0,0,1-21.25-10.13,2,2,0,0,0-2.69,2.54c11.4,29.61,189.21,70.54,218.35,67.5Q694.5,777.84,711,798.19c-82.5-54.81-305.27-69.86-116-15,77.23,22.4,132.67,55.24,156.33,68.16,1.16,1.68,2.29,3.24,3.44,4.61h18.5c-5.21-7.74-10.59-15.3-16.18-23.14,8.88-22.09,19.68-75.08,16.14-103.28-.12-1-25.14-156.73-25.46-157.13-10-78.57-5.28-119-26.5,8.68-17,101.72-7.37,60.72,13.51,174.5,2,11.12,4.37,36.57,7.27,57.2q-24.21-31.91-52.62-63.34c.22-11.9,2.78-82.49-2.56-112.75-6.74-38.15-35.95-134.48-59-171.09-6.87-10.91-49.08-56.31-39.79-35.28,69.22,155.45,42.07,152.15,64.5,244.38,5.61,23,10.65,39.56,15.07,51.39q-32.88-34.27-70.81-68c4.12-36,9.42-73.81-10.63-123.75-35.5-88.38-133.42-209.56-135.58-210.94-9.5-6,1.94,11.1,12.79,40.36,42.32,114.23,67.35,105.89,88.2,175.36,3.44,11.48,14.57,67.21,26,102.2q-33.54-28.71-70.73-56.95c.67-9.29-.75-33.62-17.88-83.51-37.32-108.48-138.93-173.4-164.1-228-3.06-6.65-6.16-3-5.8-.89.06.37,23.75,96.31,35.18,117.26,12.2,22.36,69.92,84.47,87,113.72,14.77,25.3,13.25,34.23,23.65,50.54-5.05-3.61-10.17-6.89-15.31-10.49-.15-.47-.49-.63-1.32-.63h0c-21-15.47-42.79-29.54-65.31-44a29.3,29.3,0,0,0-2-3.19c-5-6.79-1.42-77.38-63.78-135.61-24.62-23-49.39-40.57-86.09-78.7-22.82-23.7-21.19-25.62-23.7-24.82-2.17.69,115.34,180.05,159.71,231.9q-20.28-12.78-41.34-25.46C317,447.87,263.68,356.94,213.07,307.71c-31.39-30.55-70.28-54.64-87.51-67.13-6.25-4.52-11-1.13-5.28,5.29s10.79,12.61,15.15,18.26M254.92,325.7c-1-1.43-.5-.73,0,0Zm313.9,330.38c2.39,1.35,4.42,2.41,6.13,3.24l.28.24C572.08,658,569,656.46,568.82,656.08Z"/><path class="cls-1" d="M823.15,599.31c0-.37,1.62,28.18,1.61,28.56-1.45,61-6.75,59-8.75,120.11-.62,19-.16,65.07.38,108H842c1.23-9.94,2.25-22,2.95-34.12,6.29-108.3-6-116.67-14-223.69C830.35,591,823.29,589.46,823.15,599.31Z"/><path class="cls-2" d="M371.42,699.23c-17.68-25.78-22.63-28.15-37.78-51.12-14.54-22.05-22.5-30-36.1-40.07-56.06-41.47-35.43-21.95-73-48.22-17.84-12.49-17.42-8.83-26-18.42-17.61-22.1-27.14-46.74-27-45.47-2.48-17.28-5.23-14-4.82-14-2.94,0-1.77,4.17-1.78,4.11a69.17,69.17,0,0,0,2.84,10.53c4.53,30.28,4.19,18.62,9.14,46.51,5.55,31.35,6,40.41,17.76,66.58,49.35,109.57,52.44,68.52,98.34,138.46,27.72,42.22,32.44,74.94,39.66,107.89H443.68c-6.66-28.41-14.46-62.66-32-90C388.73,730.15,405.47,749,371.42,699.23Z"/><path class="cls-2" d="M578,637.8c3.53-26.29,2.5-17.73,3.46-36.28,2.06-40.19,12.13-73.47,12.87-93.76.47-12.92-15.31-65.21-19-77.67-9.94-33.44-15.58-35.79-21.75-80-5.55-39.9-12.44-47.92-17.81-83-6.08-44.23,2.36-75.26-1.82-79.28-8.18-7.8-8.77,30-16.79,72.93C486.82,422.6,452.88,389,471.88,491.45c1.92,10.35,5.33,26.64,2.79,36-3.78,14.31-29.55,40-38.38,66.65-5.23,15.79-7.15,87.35,11.5,122.42,7.92,14.89,10.47,17.39,17.44,29.2,17.54,29.71,14.3,50.47,14.27,46.48.12,18.24,2.22,40.82,5.23,63.83H585c16.71-32.14,28.31-51.7,12.92-92.74C583.68,725.43,568.25,710.51,578,637.8Z"/><path class="cls-2" d="M841.74,377.1c-3.76,0-.29-.1-15,28.86s-16.32,32.72-22.28,49C795,480.7,759,540.31,734.54,566.48c-13.63,14.55-40.88,30-53.78,50.72-11,17.75-14.85,37.91-21.07,65.83-11.9,53.43,13.21,117.62-5.51,168.14a27.1,27.1,0,0,1-2.36,4.83h79.95c5.66-12.44,9.73-29.7,19.12-66.89,13.38-53.06,41.38-95.39,39.66-92.59,11.44-18.58,13-19.67,15.73-36,13.52-82-20.32-93,38-278.48C846.13,376.22,840.14,377.1,841.74,377.1Z"/><path class="cls-2" d="M206.62,766.28c-13-23.07-10.92-42.37-27.83-67.6-26.51-39.54-65.65-66.81-75.2-75-11.91-10.21-24.85-18.92-44.92-65.92-1-2.43-1.29-3.49-2.32-4.22a3.34,3.34,0,0,0-1.93-.62c-3.88,0-3.27,4.57-3.22,9.1.14,12.44,3.31,33.34,5.66,45.53,22,113.61,20.11,104.07,85.81,166.07,20.49,19.33,22.38,40.28,22.25,39.71,2.1,9.24,2.15,19.58,14.07,42.67H283.78C258.29,815.45,230,803.91,206.62,766.28Z"/><path class="cls-3" d="M786.88,531.77a2.53,2.53,0,0,0-2.64,2.2c-2.54,21.48-14.24,64.6-21.47,82.82-11,27.78-32.35,57.71-38.8,81.43-6.23,22.9,1.13,46.32-11.22,93.3-4.92,18.74-16.61,42.74-27.5,64.48h11.46c49.18-95.54,25.51-124,37.1-157.84C747.18,659,760.07,651,773.07,608c0-.07,13.32-50.53,15.65-69.85C789.08,535.13,790,532,786.88,531.77Z"/><path class="cls-3" d="M322.81,705.27c-22.74-21.43-44.94-26.74-66.25-56.07-52.69-79-47.06-88.61-54-85.25-4.12,2-.81,5.1,5.63,18.65,21,44.24,18.27,35,35.31,62.55,9.79,15.8,20.11,28.29,39.83,42.06,49.19,34.34,53.25,45.4,64.23,78.54,13.16,39.76,19,67.41,24.07,90.25h14c-2.51-11.22-5.89-25.4-11.74-45.21C351.07,733.37,346.89,728,322.81,705.27Z"/><path class="cls-3" d="M193.82,807.55c-9.06-13.3-48.85-80.67-74-111.93-9-11.19-9.64-14.63-18.06-28.83-12.62-21.26-13.52-24.22-21-44.63-1-2.7-6.43-1.6-5,2.4,15.5,42,29.41,63.91,46.25,87.3,6.24,9.13,9.32,16.45,19,32.67,2.82,4.74,13.54,21.46,19.55,32,13.91,24.37,20.09,35.43,26.85,44C199.53,835.85,205.89,838,216.52,856h16.39c-2.18-3.55-4.81-7.6-8.27-12.52C211.48,824.77,206.51,825,193.82,807.55Z"/><path class="cls-4" d="M929,122.64C827.72,32.33,706.91,0,706.91,0s27,103.81,28.55,230.47C763.17,297.29,807.17,354,807.17,354s-38.84-20.2-73-63.9c-.33,5.63-.69,11.28-1.14,16.94-5.8,72.92-34.27,120.57-44.13,185.7,38.66,61.16,88.35,79.23,88.35,79.23S731.1,589.72,687,567.23a391.11,391.11,0,0,0,7,45.11c22.5,105.71,83.11,186.51,207.74,192.56A127.2,127.2,0,0,0,929,803.45ZM890.16,500c-3,38-91.08-58.21-64-83.9C848.74,394.59,893.14,461.93,890.16,500Z"/></g></g></svg>