<svg xmlns="http://www.w3.org/2000/svg" viewBox="0 0 634.06 631.43"><defs><style>.cls-1{fill:#c8e1cc;}.cls-2{fill:#b2cdb6;}</style></defs><title>sheet-r_d--m</title><g id="Capa_2" data-name="Capa 2"><g id="Capa_1-2" data-name="Capa 1"><path class="cls-1" d="M453.3,14.92C445,23.05,440.1,38.56,437,45.61c-10.2,22.86-25.55,43.52-45.21,47.85-47.57,10.53-114.21-1.31-143.8,47-24.44,40.09-12.07,84.34-36,110.88-16.14,15.39-89.22,21.85-117,66-38.46,61-50.4,170.32-74,253.1C14.57,592.8,7.32,614.25,0,631.43H68.55c4.48-3.17,8.65-6.85,12.75-9.84,48.84-35.44,42.82-30,78.22-92.81-.45.8,17.2-34.26,39.9-54.73,24.39-22,51.27-34.43,61.34-81.1,3.63-16.82,8.16-33.15,15.57-47.41,10.43-20.07,25.4-30,29.07-31.46,20.44-8.21,28.38,6.7,57.69,11.18,54.22,8.31,73.21-.8,91.17-42.66,25.19-58.57,10.4-78.83,64.42-83.4,39.84-3.35,50.78-3,62.36-9.75,19.93-11.67,31.31-43.33,53-70.43V41.85c-13.11-8.33-36.76-20.22-64-25.18C540.26,1.37,479.63-10.77,453.3,14.92Z"/><path class="cls-2" d="M125.15,416.06c-4.93,8.29-34.62,65.39-34.46,67.31,1.62,21.36,20.93-83,197.7-237.35,33.23-29,52-43.87,124.75-83.77C436.9,149.36,547.06,103,570.79,98.76c24.8-4.42,42.22-8.28,62.92-11.4V63C504,91.38,435.94,136.55,408.47,150.87,285.78,214.82,178.57,327.37,125.15,416.06Z"/></g></g></svg>