<svg xmlns="http://www.w3.org/2000/svg" viewBox="0 0 499 469.6"><defs><style>.cls-1{fill:#c8e1cc;fill-rule:evenodd;}.cls-2{fill:#fdf9c8;}</style></defs><title>sheet-b-r</title><g id="Capa_2" data-name="Capa 2"><g id="Capa_1-2" data-name="Capa 1"><path class="cls-1" d="M62.1,10.6c134.82,2.89,193.81,57.55,193.81,57.55S128.39,25.27,11.73,49.38A286.16,286.16,0,0,0,0,134a115.91,115.91,0,0,1,19.85-6c108.18-21.94,235.76,15.23,235.76,15.23s-145.55-7.88-252,34.59C9.52,216.7,23,257.6,45.17,300.26A291,291,0,0,0,70.86,341c102.68-104,249-148.26,249-148.26S175.2,291.83,100.38,374.61c30.22,29.59,66.55,52.68,106.67,68.67,84.87-43.16,163.24-115.9,163.24-115.9s-10.41,47.5-88.47,136.74a400.8,400.8,0,0,0,110.94,3c26.5-83.18,51.75-198.55,51.75-198.55S460.86,347,447.43,457.4A432.89,432.89,0,0,0,499,441.24V0H31.21c-2,4.31-3.92,8.1-5.74,12.18A273.68,273.68,0,0,1,62.1,10.6Z"/><path class="cls-2" d="M62.1,10.6c134.82,2.89,193.81,57.55,193.81,57.55S128.39,25.27,11.73,49.38A286.16,286.16,0,0,0,0,134a115.91,115.91,0,0,1,19.85-6c108.18-21.94,235.76,15.23,235.76,15.23s-145.55-7.88-252,34.59A363.46,363.46,0,0,0,24.2,254c60.42-56.11,106-104,108.67-72.33C135,206.53,73.15,254.47,47.2,304.06A291,291,0,0,0,70.86,341c102.68-104,249-148.26,249-148.26S175.2,291.83,100.38,374.61a307.66,307.66,0,0,0,30.69,26.29c103.15-40.2,215.71-275.09,269.4-205,28.8,37.6-74.73,99.78-11,161.84,8.22,8,19.72,9.71,32.24,6.16,13.35-52.39,22.75-95.35,22.75-95.35s6.13,29.4,7.8,77.53c20.85-18.41,39.69-48.75,46.69-86.6V0H31.21c-2,4.31-3.92,8.1-5.74,12.18A273.68,273.68,0,0,1,62.1,10.6Z"/></g></g></svg>