<svg xmlns="http://www.w3.org/2000/svg" viewBox="0 0 564.24 531"><defs><style>.cls-1{fill:#c0e3f7;fill-rule:evenodd;}</style></defs><title>sheet-r_c--m</title><g id="Capa_2" data-name="Capa 2"><g id="Capa_1-2" data-name="Capa 1"><path class="cls-1" d="M70.22,12c152.45,3.26,219.15,65.07,219.15,65.07S145.18,28.57,13.26,55.84A323.72,323.72,0,0,0,0,151.55a131.7,131.7,0,0,1,22.45-6.81C144.8,119.94,289.05,162,289.05,162s-164.58-8.91-285,39.11c6.69,44,21.88,90.2,47,138.44a327.37,327.37,0,0,0,29.05,46C196.23,268,361.69,217.91,361.69,217.91S198.11,330,113.5,423.59c34.17,33.46,75.25,59.57,120.62,77.65,96-48.8,184.59-131,184.59-131s-11.77,53.7-100,154.62a453.51,453.51,0,0,0,125.44,3.36c30-94.06,58.52-224.51,58.52-224.51s18.49,88.67,3.3,213.55a491.16,491.16,0,0,0,58.31-18.28V0H35.29C33,4.87,30.86,9.16,28.8,13.77A308.58,308.58,0,0,1,70.22,12Z"/></g></g></svg>