<svg xmlns="http://www.w3.org/2000/svg" viewBox="0 0 719.91 420.16"><defs><style>.cls-1{fill:#1e71e0;}</style></defs><title>sheet-r_b--m</title><g id="Capa_2" data-name="Capa 2"><g id="Capa_1-2" data-name="Capa 1"><path class="cls-1" d="M299.41,419c-51.56-12.41,32.44-120.24,56.5-149.63Q300,281.32,248.71,288c-6.77,29.43-38.47,151-91.29,107.82-36.95-30.23,46.14-86,79.54-106.35q-49.17,5.83-93.83,6.67a4.8,4.8,0,0,1-.85-.07c-33.5,20.58-129,73.54-141.09,16.15-14.1-67.09,100.66-38.92,139.84-27.48a5.87,5.87,0,0,1,1.88-.37,936.33,936.33,0,0,0,94.26-6.77c-38.89-8.09-126.52-31.16-99-70.81,31-44.78,97.43,46,113.25,69q49.81-6.63,104.09-18.3c-24.73-9.36-156.14-61.7-120.84-104.39,35.87-43.37,113.17,85.86,123.6,103.8Q408.49,246,462.44,230.78c-27.51-14.79-148.65-83-113.82-120.37,46.82-50.25,107.29,93.26,117.71,119.27q53.19-15.06,109.82-34.22c-35.71-18.58-166.87-91-115.58-127.47,52.22-37.13,109.11,94.14,121.71,125.37q33.21-11.34,67.54-24.05,25.48-9.44,50-19.05C670.66,134.11,515.13,44.75,575.15,6.34,636.58-33,693.75,122.34,703,149q8.51-3.33,16.88-6.68V155q-6.67,2.64-13.42,5.29c2.75,9.29,8.51,29.62,13.42,53.3V323.48c-6.77,11-18.21,15.82-36.33,10.56-49.41-14.34,3.63-140,18-171.82q-23.4,9.12-47.67,18.14-34.44,12.76-67.72,24.11c8.9,33.15,43.68,177.13-25,172.14-66.4-4.82-1.29-134,18.09-169.77Q522.67,226,469.49,241c3.77,34.69,16,181.85-49.53,174-54.87-6.61,20.88-136.27,43-172.11q-52,14.55-100.69,25.15C362.77,298.51,361.78,434,299.41,419Z"/></g></g></svg>