<svg xmlns="http://www.w3.org/2000/svg" viewBox="0 0 462.58 557.32"><defs><style>.cls-1{fill:#cbdfb5;}</style></defs><title>sheet-l_c--m</title><g id="Capa_2" data-name="Capa 2"><g id="Capa_1-2" data-name="Capa 1"><path class="cls-1" d="M424.62,408c3.95-53.44-1.95-94-12.6-128.18-42.59-19.92-74.64-29.16-74.64-29.16s25.92-3.75,61.79-5c-9.17-20.9-19.71-40-30.08-59.19-12.5-23.17-28.64-45.08-47.12-65.08-69.11,11.64-107.9,31.21-107.9,31.21a731.77,731.77,0,0,1,89.06-50.19c-80-75.19-150.14-126-209.42-91.26-53.3,31.25-53.11,113-53.11,113A305.4,305.4,0,0,0,0,139.05V396.82c70.09,12.67,130.49-14.42,192.64,23.87,2.28,1.41,4.28,2.85,6.46,4.29-5.35-36.61-13.46-73.5-13.46-73.5s21.07,30.32,33.26,88.15c43.82,35.3,70.68,77,143.76,105.17,56.74,21.91,99.92,8.4,99.92,8.4S418.61,489.27,424.62,408Z"/></g></g></svg>