<svg xmlns="http://www.w3.org/2000/svg" viewBox="0 0 884.86 492.71"><defs><style>.cls-1{fill:#1e71e0;}</style></defs><title>sheet-c-r</title><g id="Capa_2" data-name="Capa 2"><g id="Capa_1-2" data-name="Capa 1"><path class="cls-1" d="M287,330.56q-59.72,4.43-113.72,3.05a6.94,6.94,0,0,1-1-.13c-41.57,23.08-159.81,81.95-171.32,12-13.45-81.82,123.69-41.65,170.42-25.74a7,7,0,0,1,2.29-.35,1130.57,1130.57,0,0,0,114.24-3.14c-46.56-11.85-151.2-44.4-115.89-90.83,39.9-52.46,115.25,60.83,133.14,89.41q60.54-5.35,126.73-16.55c-29.38-12.63-185.34-82.87-140.41-132.57,45.65-50.49,132.13,109.78,143.79,132q61.29-10.47,127.3-25.94c-32.45-19.33-175.16-108.21-131.09-151.5C490.7,62,556.09,238.65,567.29,270.63q65.06-15.36,134.5-35.48C659.64,210.8,505.05,116.31,569,75,634,32.91,695.75,194.54,709.3,232.94Q750,221,792.2,207.5q31.29-10,61.44-20.35c-34.4-21.06-217.52-137.34-143-180.53C787-37.6,847.94,153.11,857.72,185.76q13.71-4.69,27.14-9.4l-6.7,17.42q-8.38,2.91-16.86,5.81c1.32,5.29,3.3,13.52,5.5,23.72L804,386.54c-15-48,35.47-153.87,51.1-184.85q-28.75,9.78-58.58,19.37-42.28,13.58-83.12,25.51c9,40.54,43.31,216.34-39.44,206.64-80-9.37,5.59-161.91,30.92-204.14q-69.36,20.1-134.42,35.44c2.7,42.11,9.58,220.55-69.13,207.52-65.93-10.92,32.51-163.52,61.09-205.64q-63.63,14.79-123,25c-.95,36.86-9.39,200.52-83.94,179.05-61.63-17.74,45.62-143.53,76.24-177.75q-68.19,11.44-130.49,16.71c-9.76,35.19-54.55,180.41-116,125.39C142.18,416.31,245.54,353.38,287,330.56Z"/></g></g></svg>