<svg xmlns="http://www.w3.org/2000/svg" viewBox="0 0 1171 442.92"><defs><style>.cls-1{fill:#fdf9c8;}</style></defs><title>sheet-a-l</title><g id="Capa_2" data-name="Capa 2"><g id="Capa_1-2" data-name="Capa 1"><path class="cls-1" d="M383.44,46c19.59,26.2,18.85,53.89,63.65,119.23C479.21,212,548.83,295.4,548.83,295.4s-86-37.86-150.65-129.45c-58.67-83.07-51.73-134.7-51.73-134.7L331.51,0h16.05c5.44,12.44,11.59,24.33,11.59,24.33S376.39,36.52,383.44,46Z"/><path class="cls-1" d="M885.52,0H926.4c12.2,5.18,18.49,9.4,18.49,9.4S919.67,5.18,885.52,0Z"/><path class="cls-1" d="M569.7,6.33s-32.58,8.47-46.65,15.82q26.57,9.11,53.05,19l56.74-7.95s6.46-10.16,24.71-13.11c27.5-4.44,68.59-9,124.54-5.55C913.85,22.72,997,70.51,997,70.51S871.65,44.6,813,43.79c-81.8-1.13-121.1,3.12-148,2.3-12.15-.37-26.9-4.61-26.9-4.61s-28.21,1.6-41.46,7.22l-.45.18q34.38,13.38,68.5,28.19l50.83-2s35.66-15.92,136.74-4.73c111.44,12.34,197.23,65.91,197.23,65.91s-109.59-29.55-166.11-35c-78.86-7.63-117.14-6.68-143-9.62-11.7-1.33-25.6-6.6-25.6-6.6s-19.48-2.19-34.37-1.11q18.43,8.19,36.78,16.75t36.43,17.53l37.32,2.48s47.53-1.61,124.7,14.48c100.58,21,170.85,61.87,170.85,61.87s-65.15-22.61-116.7-29.59c-131.93-17.87-180.54-37.56-180.54-37.56s-8.84-2-18.86-3.29q35.45,18,69.45,37l44.62,8.53s29.74-1.05,96.17,20.23c86.6,27.75,132.91,65.95,132.91,65.95s-44.41-16.18-89.13-26.75c-114.44-27.07-140.85-49.13-140.85-49.13s-8.31-2.23-18.35-4.32c39.48,23,76.94,46.9,111.56,71.23,22.19,6.6,57,22.94,98.78,63.32,37.19,35.95,77.25,95.41,95.49,123.77l-2.48,6.47C1133.38,413,1041.93,323.13,972.19,263.18c-35.8-25.32-74.7-50.21-115.83-74.11,5.56,8.66,12.26,17.11,12.26,17.11s9.28,5.39,15.13,11.48c13,13.51,32.65,35.54,71.23,77.3,27.64,29.93,101,91.18,101,91.18s-77.88-37.2-135.72-93.1c-56.93-55-57.6-81.39-57.6-81.39l-20.12-30.5q-36.42-20.73-74.79-40.28c7,11.69,17.86,24.44,17.86,24.44s11.35,8,18.49,16.38c15.82,18.54,35.07,48.69,82.19,105.79,33.77,40.93,125.91,122.68,125.91,122.68s-93.07-53-160.85-132.92c-61.48-72.46-73-106.13-73-106.13l-22.41-36.19q-22.12-11.07-44.67-21.66Q694.58,105.46,677.8,98c6.32,13.76,23,33.34,23,33.34s12.15,8.57,19.79,17.53c16.93,19.84,37.54,52.11,88,113.22,36.14,43.8,121.91,118.14,121.91,118.14s-92.38-41.18-164.92-126.67c-65.8-77.55-72.53-116-72.53-116L665,92.35Q627.76,76.08,590.2,61.46c6.34,13.29,17,28.38,17,28.38s11.33,9.62,18.15,19.21c15.1,21.27,36.78,48.64,81.59,114,32.12,46.83,116.95,126.15,116.95,126.15s-98.37-40.28-163-131.86c-58.66-83.08-62-122-62-122l-19-37.8Q550,46.12,520,35.8C524.75,50.07,540.28,72,540.28,72s11.34,9.62,18.16,19.22c15.1,21.26,19.69,52.62,64.5,118,32.11,46.83,97.75,113.13,97.75,113.13s-66.78-24.83-131.46-116.42C530.57,122.82,532,77.5,532,77.5L509.14,32.07Q473.22,20,437.19,9.5c5.45,15.43,16.9,37.58,16.9,37.58s11.34,9.62,18.16,19.22c15.1,21.26,19.7,52.62,64.5,118,32.12,46.83,100.14,127.45,100.14,127.45s-77.21-38.39-141.89-130C436.33,98.66,445.79,52.58,445.79,52.58L421.93,5.14C415.72,3.38,409.51,2.07,403.29,0H454c18.58,5.18,37.14,11.43,55.69,17.63L560.4,0h67.68c-12.26,3.11-22.21,5.62-30.88,6.71C585,8.23,569.7,6.33,569.7,6.33Z"/><path class="cls-1" d="M283.61,27.68c19.59,26.2,11.18,57.33,56,122.67C371.72,197.18,449,277.13,449,277.13s-90-31.45-154.68-123C235.65,71,246.62,13,246.62,13L240.41,0h15.86a48.66,48.66,0,0,0,3.06,6.06S276.57,18.25,283.61,27.68Z"/><path class="cls-1" d="M93.11,207.72S45.37,196.47,0,157.49v-56q1.76,2.81,3.69,5.7C29,145.1,93.11,207.72,93.11,207.72Z"/><path class="cls-1" d="M59.33,3.46c17.9,24,8.47,53.78,49.19,113.76,29.19,43,100.78,115.45,100.78,115.45s-85.9-26-144.79-110C23.77,64.54,21.66,18.66,23,0H56.34A25.79,25.79,0,0,1,59.33,3.46Z"/><path class="cls-1" d="M178.39,14.84C198,41,189.57,72.16,234.37,137.5c32.12,46.84,109.41,126.78,109.41,126.78s-90-31.45-154.69-123C130.43,58.17,141.4.13,141.4.13L141.33,0H163C168.3,4.15,174.72,9.93,178.39,14.84Z"/></g></g></svg>