<svg xmlns="http://www.w3.org/2000/svg" viewBox="0 0 242 456.97"><defs><style>.cls-1{fill:#c8e1cc;fill-rule:evenodd;}</style></defs><title>sheet-c-l</title><g id="Capa_2" data-name="Capa 2"><g id="Capa_1-2" data-name="Capa 1"><path class="cls-1" d="M24.72,336.79s47.59,52,120,71.36A272.76,272.76,0,0,0,197,353.67c-80.46-5.87-108.2-23.89-108.2-23.89s72.71-2.26,134.43-22A219.54,219.54,0,0,0,242,223.58c-75.8-4.29-193.21,16.9-193.21,16.9s92-48.54,191.42-47.3a198,198,0,0,0-7-32c-9.64-31.27-22.7-57.49-38.42-79.14C122.91,112.41,56.23,185.82,56.23,185.82s44-79,106.82-120.11a79.7,79.7,0,0,1,12.49-6.58A194.82,194.82,0,0,0,129.4,23.76C61.4,67.87,20.19,149.61,20.19,149.61S22.61,95,86.49,29.09A186.23,186.23,0,0,1,105,12.35,221.28,221.28,0,0,0,58.19,0,334.66,334.66,0,0,0,0,36.28V429a560.78,560.78,0,0,0,53.27,28,296.91,296.91,0,0,0,60.34-27.37C54.3,382.57,24.72,336.79,24.72,336.79Z"/></g></g></svg>