<svg xmlns="http://www.w3.org/2000/svg" viewBox="0 0 604.17 427.37"><defs><style>.cls-1{fill:#c8e1cc;}.cls-2{fill:#b2cdb6;}</style></defs><title>sheet-a-r</title><g id="Capa_2" data-name="Capa 2"><g id="Capa_1-2" data-name="Capa 1"><path class="cls-1" d="M151.45,69.25c-27.17,61.41-79.9,142.35-95,160.88-17.91,22-20.23,23-23,27a3.76,3.76,0,0,0,2.05,6.07c9.76,3,129.47-78.13,125.56-75.28,51.5-36.53,78.85-84.58,75.76-79.76C251,86,268.48,42.13,282.67,0H192A348.24,348.24,0,0,0,151.45,69.25Z"/><path class="cls-2" d="M127.41,161.34c-28.11,28-15.42,16.4-67.09,71.54-17.93,18.63-28.08,26.21-28.18,28.3-.11,2.26,2.74,2.35,2.32,2.28,1.86.07,1.47-.72,7.64-6.31,1.89-1.71,10.38-8.84,10.43-8.88,34.65-28.93,58.81-60,91.57-89.69,48.43-43.88,84.6-101.31,113-157.13L257.85,0H244.5C192.64,96.34,168.72,120.13,127.41,161.34Z"/><path class="cls-1" d="M92.44,210.82c-.77.78,0,0,0,0Z"/><path class="cls-1" d="M92.83,210.41Z"/><path class="cls-1" d="M45.46,28.49C.52,85.56-1.73,86.05.62,89.56c3.23,3.65,6.39.62,9.19-1,34-20.23,95.94-46.07,140.25-87L151.7,0H67.14C57.43,12.69,45.44,28.52,45.46,28.49Z"/><path class="cls-2" d="M68.45,23.26C47.33,48.12,31.8,57.65,17.38,71.56c-3.82,3.69-5,5.36-12.72,12.7a1.75,1.75,0,0,0,1,3.11,1.93,1.93,0,0,0,1.67-.43c27.63-26.4,8.53-8.77,44.53-37.17,30.69-24.2,24-25,54.56-49.77H90.22A208.33,208.33,0,0,0,68.45,23.26Z"/><path class="cls-1" d="M311.25,0c-3.51,6.85-6.9,13.41-11.22,23C256,120.76,268.12,236.35,269.52,339.22c.76,55.33-7.44,85.62.19,87.95,3.77,1.16,5.7-2.79,12.66-14.74,49.36-84.85,48.75-81.2,59.05-112.32C377.85,190.24,369.81,73.19,367.63,0Z"/><path class="cls-2" d="M329.28,54.26c-30.43,170.66,2.74,68.15-43.84,303.89-2.47,11.55-4.78,14-1.51,14.57,3.64.64.21,7.63,33.38-128.26,5.3-21.81,7.69-61.55,8.69-78.9C328.1,129.3,339.41,66.85,350.22,0H338.54C336,15.9,332.92,33.89,329.28,54.26Z"/><path class="cls-1" d="M451.42,0H388.84c-3,148.11,54.68,235.56,66.13,269.43,22.56,66.77,19.4,89.88,22.43,93a3.23,3.23,0,0,0,1.69.84c3.37.59,2.89-.69,8-20.19,4.88-18.52,16.61-53.64,17.61-93.93,1.68-67.35-10.16-144.72-50.33-241.79C453.38,4.83,452.39,2.4,451.42,0Z"/><path class="cls-2" d="M425.24,0H413.19c24.15,114.44,64.15,265.55,63.3,283.39-.12,2.68,4.36,2.84,4.49.17a38.29,38.29,0,0,0,0-8.08C456.27,126.33,437.64,52.31,425.24,0Z"/><path class="cls-1" d="M568.29,40.4A349.48,349.48,0,0,0,547.83,0H476.39a275.4,275.4,0,0,0,10,28.65c6.12,14.88,8.53,25.66,24.25,55,22.12,41.2,31.22,47.59,52.58,70.68,6.89,7.43,18.66,22.72,27.89,32,6.65,6.71,8.12,6.3,8.08,6.29,3.12.55,5.88-1.33,4.75-6.91C598.61,159.47,578.3,64.26,568.29,40.4Z"/><path class="cls-2" d="M551.85,80.62c-6.61-12.54-10-15.28-19.84-36.29C523,25.17,516.16,11.08,510.72,0h-12C509,20.26,530,61.75,526,54.44c18.58,34.45,10.86,14.93,27.62,51,4.92,10.58,19.73,34.56,24.31,49.76.28.91,1.56.67,1.43.65,2-.62-1.33-7.1-5.71-18.82C573.64,137,556,88.45,551.85,80.62Z"/></g></g></svg>