<svg xmlns="http://www.w3.org/2000/svg" viewBox="0 0 471.52 573.69"><defs><style>.cls-1{fill:#fdf9c8;}</style></defs><title>sheet-l_e--m</title><g id="Capa_2" data-name="Capa 2"><g id="Capa_1-2" data-name="Capa 1"><path class="cls-1" d="M0,398.75v27.5c40.25,33.18,99.2,76.8,124,37.63C151.05,421.25,53.36,404.56,0,398.75Z"/><path class="cls-1" d="M360.16,74.08a7.06,7.06,0,0,0-3.05.71Q323.87,91,289.05,112.42c20-30.74,59.51-99.37,21-109.17C254-11,271.32,90.83,277.31,119.75q-37.4,23.67-76.46,53.07c8.9-35.73,32.6-144.57-11.27-135.66C136.2,48,181.69,150.45,194.72,177.47q-33.87,25.78-68.91,55.78c4.45-39.89,14.77-163.17-29.76-148.57-53.39,17.49,6.59,124.77,23.89,153.62q-35.81,30.92-72.81,66.11C49,269.17,51.05,168,12,164.59L0,185.77v67.08c13.11,24.32,32.4,46.89,41.1,57.35-13.6,13.07-28,26.61-41.1,40.55V371c3.17-2.24,4.39-4.49,6.62-6.74Q29,341.59,51.05,320.43c23.85,22.05,113.66,100.19,140.59,52.72,26.36-46.46-96.74-56-135.25-57.84q36.93-35.25,72.69-66.15C150.27,268.83,246.31,354,264.29,298.54c13.27-41-99.43-50.88-131.17-52.86q36.36-31.22,71.45-57.88c20,13.73,122,81,133.89,35.18,11.59-44.58-100.1-40.08-130-38.1q37.6-28.35,73.63-51.34c23.77,13.75,105,57,112.72,11.62,6.69-39.06-62.15-28.7-98.14-20.74q34.13-20.92,66.71-36.87a7.1,7.1,0,0,0,3.22-3.19c37.29-6,132.27-26.16,97.38-72.67C434.11-28.09,380.29,44,360.16,74.08Z"/><path class="cls-1" d="M0,504.52v67c18.54,5.31,34.28,1.56,43.16-19.1C52.64,530.36,31.65,515,0,504.52Z"/></g></g></svg>