<svg xmlns="http://www.w3.org/2000/svg" viewBox="0 0 719.91 420.16"><defs><style>.cls-1{fill:#1e71e0;}</style></defs><title>sheet-b-l</title><g id="Capa_2" data-name="Capa 2"><g id="Capa_1-2" data-name="Capa 1"><path class="cls-1" d="M420.5,419C472.06,406.6,388.06,298.77,364,269.38Q419.92,281.32,471.2,288c6.77,29.43,38.47,151,91.29,107.82,37-30.23-46.14-86-79.54-106.35q49.17,5.83,93.83,6.67a4.8,4.8,0,0,0,.85-.07c33.5,20.58,129,73.54,141.09,16.15,14.1-67.09-100.66-38.92-139.84-27.48a5.87,5.87,0,0,0-1.88-.37,936.33,936.33,0,0,1-94.26-6.77c38.9-8.09,126.53-31.16,99-70.81-31-44.78-97.43,46-113.25,69q-49.82-6.63-104.09-18.3c24.73-9.36,156.14-61.7,120.84-104.39-35.87-43.37-113.17,85.86-123.6,103.8Q311.43,246,257.47,230.78C285,216,406.12,147.78,371.29,110.41,324.47,60.16,264,203.67,253.58,229.68q-53.19-15.06-109.81-34.22c35.7-18.58,166.86-91,115.57-127.47-52.22-37.13-109.11,94.14-121.7,125.37Q104.43,182,70.09,169.31q-25.48-9.44-50-19.05C49.25,134.11,204.78,44.75,144.76,6.34,83.33-33,26.16,122.34,16.88,149Q8.38,145.63,0,142.28V155q6.68,2.64,13.43,5.29c-2.76,9.29-8.52,29.62-13.43,53.3V323.48c6.77,11,18.21,15.82,36.33,10.56,49.41-14.34-3.63-140-18-171.82Q41.74,171.34,66,180.36q34.44,12.76,67.73,24.11c-8.9,33.15-43.69,177.13,25,172.14,66.4-4.82,1.3-134-18.09-169.77Q197.24,226,250.43,241c-3.77,34.69-16,181.85,49.53,174,54.86-6.61-20.89-136.27-43-172.11Q309,257.42,357.69,268C357.14,298.51,358.13,434,420.5,419Z"/></g></g></svg>