<svg xmlns="http://www.w3.org/2000/svg" viewBox="0 0 46.18 34.63"><defs><style>.cls-1{fill:#fdf9c8;}</style></defs><title>send-icon</title><g id="Capa_2" data-name="Capa 2"><g id="Capa_1-2" data-name="Capa 1"><path class="cls-1" d="M45,16.16a1.16,1.16,0,0,0-1.15,1.16V31.17a1.16,1.16,0,0,1-1.16,1.15H3.46a1.16,1.16,0,0,1-1.15-1.15V17.32a1.16,1.16,0,1,0-2.31,0V31.17a3.46,3.46,0,0,0,3.46,3.46H42.71a3.47,3.47,0,0,0,3.47-3.46V17.32A1.16,1.16,0,0,0,45,16.16Z"/><path class="cls-1" d="M18.13,7.74l3.8-3.8V19.63a1.16,1.16,0,0,0,2.31,0V3.94L28,7.74a1.16,1.16,0,1,0,1.64-1.63L23.9.34a1.15,1.15,0,0,0-1.63,0L16.5,6.11a1.15,1.15,0,1,0,1.63,1.63Z"/></g></g></svg>