<svg xmlns="http://www.w3.org/2000/svg" viewBox="0 0 58.29 38.43"><defs><style>.cls-1{fill:#1c3226;}</style></defs><title>share-icon-g</title><g id="Capa_2" data-name="Capa 2"><g id="Capa_1-2" data-name="Capa 1"><path class="cls-1" d="M35.94,0a1.3,1.3,0,0,1,.64.27l21.2,16.56A1.33,1.33,0,0,1,58,18.7a1.67,1.67,0,0,1-.23.23L36.58,35.49a1.32,1.32,0,0,1-1.86-.24,1.35,1.35,0,0,1-.27-.79V27.81a50.07,50.07,0,0,0-11,.79C16.87,29.73,8.77,32.35,2.2,38.1A1.33,1.33,0,0,1,.33,38a1.3,1.3,0,0,1-.26-1.28c5.53-17,22.36-25.16,34.38-28.4V1.34A1.32,1.32,0,0,1,35.76,0ZM37.1,4V9.28a1.33,1.33,0,0,1-1,1.29C25.64,13.22,11,20,4.45,33.19A48.64,48.64,0,0,1,23,26a59,59,0,0,1,12.82-.81,1.34,1.34,0,0,1,1.26,1.33v5.23L54.82,17.9Z"/></g></g></svg>