<svg xmlns="http://www.w3.org/2000/svg" viewBox="0 0 36.45 37.39"><defs><style>.cls-1{fill:#1c3226;}</style></defs><title>t-icon-g</title><g id="Capa_2" data-name="Capa 2"><g id="Capa_1-2" data-name="Capa 1"><path class="cls-1" d="M18.48.25A18.46,18.46,0,0,1,36.7,19,18.46,18.46,0,0,1,18.48,37.64,18.46,18.46,0,0,1,.25,19,18.47,18.47,0,0,1,18.48.25Zm9.18,14.93A9.85,9.85,0,0,0,30,12.74a9.1,9.1,0,0,1-2.64.75,4.74,4.74,0,0,0,2-2.62A9,9,0,0,1,26.41,12a4.5,4.5,0,0,0-3.35-1.49,4.66,4.66,0,0,0-4.59,4.71,5.32,5.32,0,0,0,.11,1.07,12.92,12.92,0,0,1-9.46-4.92,4.87,4.87,0,0,0-.63,2.37,4.75,4.75,0,0,0,2,3.92,4.48,4.48,0,0,1-2.08-.59v.06a4.7,4.7,0,0,0,3.69,4.63,4.48,4.48,0,0,1-1.22.15,6.11,6.11,0,0,1-.86-.07,4.6,4.6,0,0,0,4.29,3.26,9,9,0,0,1-5.7,2,9.84,9.84,0,0,1-1.1-.07,12.82,12.82,0,0,0,7,2.12c8.45,0,13.07-7.19,13.07-13.41C27.67,15.59,27.67,15.38,27.66,15.18Z" transform="translate(-0.25 -0.25)"/></g></g></svg>