<svg xmlns="http://www.w3.org/2000/svg" viewBox="0 0 1923.88 614.45"><defs><style>.cls-1{fill:#1e71e0;}.cls-2,.cls-6{fill:#c8e1cc;}.cls-2,.cls-3{fill-rule:evenodd;}.cls-3{fill:#c0e3f7;}.cls-4{fill:#fdf9c8;}.cls-5{fill:#6fd48b;}.cls-7{fill:#b2cdb6;}.cls-8{fill:#468d61;}</style></defs><title>header</title><g id="Capa_2" data-name="Capa 2"><g id="Capa_1-2" data-name="Capa 1"><path class="cls-1" d="M420.5,505.14c51.56-12.41-32.44-120.23-56.49-149.62q55.9,11.94,107.19,18.57c6.77,29.42,38.47,151,91.29,107.82,37-30.23-46.14-86-79.54-106.35q49.17,5.83,93.83,6.67a7.9,7.9,0,0,0,.85-.07c33.5,20.58,129,73.53,141.09,16.15,14.1-67.1-100.66-38.92-139.84-27.49a6.16,6.16,0,0,0-1.88-.37,933.4,933.4,0,0,1-94.26-6.77c38.9-8.08,126.53-31.15,99-70.8-31-44.79-97.43,46.05-113.25,69q-49.82-6.63-104.09-18.3c24.73-9.36,156.14-61.69,120.84-104.38C449.42,195.82,372.12,325.06,361.69,343q-50.26-10.89-104.22-26.08c27.51-14.78,148.65-83,113.82-120.37C324.47,146.29,264,289.81,253.58,315.82q-53.19-15.07-109.81-34.23c35.7-18.57,166.86-91,115.57-127.46C207.12,117,150.23,248.26,137.64,279.49q-33.21-11.33-67.55-24-25.48-9.45-50-19C49.25,220.25,204.78,130.89,144.76,92.48,83.33,53.16,26.16,208.48,16.88,235.1Q8.38,231.76,0,228.42v12.67q6.68,2.66,13.43,5.3C10.67,255.67,4.91,276,0,299.68V409.61c6.77,11,18.21,15.83,36.33,10.57,49.41-14.35-3.63-140-18-171.83Q41.74,257.49,66,266.49q34.44,12.76,67.73,24.11c-8.9,33.16-43.69,177.14,25,172.15,66.4-4.82,1.3-134-18.09-169.77q56.56,19.13,109.75,34.18c-3.77,34.69-16,181.85,49.53,174,54.86-6.61-20.89-136.27-43-172.11q52,14.55,100.69,25.15C357.14,384.65,358.13,520.15,420.5,505.14Z"/><path class="cls-1" d="M1276.34,378.38q-59.71,4.42-113.72,3.05a6.94,6.94,0,0,1-1-.13c-41.57,23.08-159.81,81.95-171.31,12-13.45-81.82,123.69-41.65,170.41-25.74a7,7,0,0,1,2.29-.35A1128,1128,0,0,0,1277.24,364c-46.57-11.84-151.21-44.39-115.89-90.83,39.89-52.45,115.25,60.84,133.13,89.42q60.54-5.36,126.74-16.55c-29.39-12.63-185.35-82.88-140.42-132.57,45.65-50.49,132.14,109.78,143.79,132q61.29-10.47,127.3-25.94c-32.45-19.33-175.16-108.21-131.09-151.51,59.26-58.2,124.65,118.41,135.85,150.39q65.05-15.36,134.5-35.48C1649,258.62,1494.41,164.13,1558.33,122.8c65.07-42.07,126.78,119.56,140.34,158q40.72-11.92,82.89-25.44,31.29-10,61.44-20.35c-34.39-21.06-217.52-137.34-143-180.54,76.32-44.21,137.26,146.49,147,179.15q13.71-4.7,27.14-9.4l-6.7,17.42q-8.38,2.91-16.86,5.81c1.32,5.29,3.3,13.52,5.51,23.72l-62.78,163.23c-15-48,35.47-153.87,51.1-184.85q-28.76,9.78-58.58,19.37-42.29,13.58-83.12,25.51c9,40.54,43.32,216.34-39.44,206.64-80-9.37,5.59-161.91,30.92-204.14q-69.36,20.1-134.41,35.43c2.7,42.12,9.57,220.56-69.14,207.53-65.93-10.92,32.51-163.52,61.09-205.64q-63.63,14.79-123,25c-1,36.86-9.4,200.52-83.94,179-61.64-17.74,45.61-143.53,76.24-177.75q-68.19,11.43-130.5,16.71c-9.75,35.19-54.55,180.4-116,125.39C1131.54,464.13,1234.91,401.2,1276.34,378.38Z"/><path class="cls-2" d="M1487,10.6c134.82,2.89,193.81,57.55,193.81,57.55s-127.52-42.88-244.18-18.77A286.16,286.16,0,0,0,1424.9,134a115.91,115.91,0,0,1,19.85-6c108.18-21.94,235.75,15.23,235.75,15.23s-145.54-7.88-252,34.59c5.91,38.87,19.34,79.77,41.56,122.43A291,291,0,0,0,1495.74,341c102.67-104,249-148.26,249-148.26s-144.66,99.11-219.48,181.89c30.22,29.59,66.55,52.68,106.66,68.67,84.88-43.16,163.25-115.9,163.25-115.9s-10.41,47.5-88.47,136.74a400.8,400.8,0,0,0,110.94,3c26.5-83.18,51.75-198.55,51.75-198.55s16.35,78.42,2.92,188.86a432.89,432.89,0,0,0,51.57-16.16V0H1456.09c-2,4.31-3.92,8.1-5.74,12.18A273.68,273.68,0,0,1,1487,10.6Z"/><path class="cls-1" d="M3.4,352.28h107"/><path class="cls-1" d="M109.8,352.28h107"/><path class="cls-1" d="M216.21,352.28h107"/><path class="cls-3" d="M688.17,57.29c-83.92,79.28-358.28-42-309,8.89S552.89,148,513.76,219.56C441.88,351.1,256.91,69.78,252.37,123.3c-2.24,26.33,101.28,90.85,52.81,138.22C225.19,339.67,116.49,73.25,70.75,133c-19.55,25.52,50.72,67.72,7.43,109.84C59.06,261.4,13.82,229.92,3.88,176.1V0H716C715.91,19.31,707.31,39.21,688.17,57.29Z"/><path class="cls-4" d="M387.32,46c19.59,26.2,18.85,53.89,63.65,119.23C483.09,212,552.71,295.4,552.71,295.4s-86-37.86-150.66-129.45c-58.66-83.07-51.72-134.7-51.72-134.7L335.39,0h16.05C356.87,12.44,363,24.33,363,24.33S380.27,36.52,387.32,46Z"/><path class="cls-4" d="M889.4,0h40.88c12.2,5.18,18.49,9.4,18.49,9.4S923.55,5.18,889.4,0Z"/><path class="cls-4" d="M573.58,6.33S541,14.8,526.93,22.15q26.57,9.11,53.05,19l56.73-7.95s6.47-10.16,24.72-13.11c27.5-4.44,68.58-9,124.54-5.55,131.76,8.14,214.93,55.93,214.93,55.93S875.53,44.6,816.9,43.79c-81.79-1.13-121.09,3.12-148,2.3-12.15-.37-26.9-4.61-26.9-4.61s-28.21,1.6-41.46,7.22l-.45.18q34.38,13.38,68.5,28.19l50.83-2s35.66-15.92,136.74-4.73c111.44,12.34,197.23,65.91,197.23,65.91s-109.59-29.55-166.12-35c-78.85-7.63-117.13-6.68-143-9.62-11.7-1.33-25.6-6.6-25.6-6.6s-19.48-2.19-34.37-1.11q18.43,8.19,36.78,16.75t36.42,17.53l37.32,2.48s47.54-1.61,124.71,14.48c100.58,21,170.85,61.87,170.85,61.87s-65.15-22.61-116.7-29.59c-131.93-17.87-180.54-37.56-180.54-37.56s-8.85-2-18.87-3.29q35.46,18,69.46,37l44.62,8.53s29.74-1.05,96.17,20.23c86.59,27.75,132.91,65.95,132.91,65.95s-44.41-16.18-89.13-26.75C913.81,204.51,887.4,182.45,887.4,182.45s-8.31-2.23-18.35-4.32c39.48,23,76.94,46.9,111.56,71.23,22.19,6.6,57,22.94,98.78,63.32,37.19,35.95,77.25,95.41,95.49,123.77l-2.48,6.47C1137.26,413,1045.81,323.13,976.06,263.18c-35.79-25.32-74.7-50.21-115.83-74.11,5.56,8.66,12.27,17.11,12.27,17.11s9.28,5.39,15.12,11.48c13,13.51,32.66,35.54,71.23,77.3,27.65,29.93,101,91.18,101,91.18S982,348.94,924.15,293c-56.93-55-57.6-81.39-57.6-81.39l-20.12-30.5Q810,160.42,771.64,140.87c7,11.69,17.86,24.44,17.86,24.44s11.35,8,18.49,16.38c15.82,18.54,35.07,48.69,82.19,105.79,33.76,40.93,125.91,122.68,125.91,122.68s-93.07-53-160.85-132.92c-61.48-72.46-73-106.13-73-106.13l-22.41-36.19q-22.12-11.07-44.67-21.66-16.68-7.8-33.46-15.25c6.32,13.76,23,33.34,23,33.34s12.15,8.57,19.79,17.53C741.37,168.72,762,201,812.4,262.1c36.14,43.8,121.91,118.14,121.91,118.14s-92.38-41.18-164.92-126.67c-65.8-77.55-72.53-116-72.53-116l-28-45.21q-37.25-16.27-74.79-30.89c6.34,13.29,17,28.38,17,28.38s11.34,9.62,18.16,19.21c15.1,21.27,36.78,48.64,81.59,114C743,269.86,827.8,349.18,827.8,349.18s-98.37-40.28-163-131.86c-58.66-83.08-62-122-62-122l-19-37.8Q553.91,46.12,523.9,35.8C528.63,50.07,544.16,72,544.16,72s11.34,9.62,18.15,19.22c15.11,21.26,19.7,52.62,64.51,118,32.11,46.83,97.75,113.13,97.75,113.13s-66.78-24.83-131.46-116.42C534.44,122.82,535.85,77.5,535.85,77.5L513,32.07Q477.1,20,441.07,9.5C446.52,24.93,458,47.08,458,47.08s11.34,9.62,18.16,19.22c15.1,21.26,19.69,52.62,64.5,118,32.12,46.83,100.14,127.45,100.14,127.45s-77.21-38.39-141.89-130C440.21,98.66,449.66,52.58,449.66,52.58L425.81,5.14C419.6,3.38,413.39,2.07,407.17,0h50.67C476.42,5.18,495,11.43,513.52,17.63L564.28,0H632c-12.26,3.11-22.21,5.62-30.89,6.71C588.92,8.23,573.58,6.33,573.58,6.33Z"/><path class="cls-4" d="M287.49,27.68c19.59,26.2,11.18,57.33,56,122.67,32.12,46.83,109.4,126.78,109.4,126.78s-90-31.45-154.68-123C239.53,71,250.5,13,250.5,13L244.29,0h15.86a49.82,49.82,0,0,0,3.05,6.06S280.44,18.25,287.49,27.68Z"/><path class="cls-4" d="M97,207.72S49.25,196.47,3.88,157.49v-56q1.76,2.81,3.69,5.7C32.91,145.1,97,207.72,97,207.72Z"/><path class="cls-4" d="M63.2,3.46c17.91,24,8.48,53.78,49.2,113.76,29.19,43,100.78,115.45,100.78,115.45s-85.9-26-144.8-110C27.65,64.54,25.54,18.66,26.84,0H60.22A25.7,25.7,0,0,1,63.2,3.46Z"/><path class="cls-4" d="M182.27,14.84c19.59,26.2,11.18,57.32,56,122.66,32.12,46.84,109.4,126.78,109.4,126.78s-90-31.45-154.68-123C134.31,58.17,145.28.13,145.28.13L145.21,0h21.65C172.18,4.15,178.6,9.93,182.27,14.84Z"/><path class="cls-5" d="M1031.76,188l-.18.13Z"/><path class="cls-6" d="M1022.16,69.25c-27.17,61.41-79.9,142.35-95,160.88-17.91,22-20.23,23-23,27a3.76,3.76,0,0,0,2.05,6.07c9.76,3,129.47-78.13,125.56-75.28,51.51-36.53,78.85-84.58,75.76-79.76C1121.75,86,1139.19,42.13,1153.38,0h-90.7A348.72,348.72,0,0,0,1022.16,69.25Z"/><path class="cls-7" d="M998.12,161.34c-28.11,28-15.42,16.4-67.09,71.54-17.93,18.63-28.08,26.21-28.18,28.3-.11,2.26,2.74,2.35,2.32,2.28,1.87.07,1.47-.72,7.64-6.31,1.89-1.71,10.38-8.84,10.43-8.88,34.65-28.93,58.81-60,91.57-89.69,48.43-43.88,84.6-101.31,113-157.13l.78-1.45h-13.35C1063.35,96.34,1039.43,120.13,998.12,161.34Z"/><path class="cls-6" d="M963.15,210.82c-.77.78,0,0,0,0Z"/><path class="cls-6" d="M963.54,210.41Z"/><path class="cls-6" d="M916.17,28.49C871.23,85.56,869,86.05,871.33,89.56c3.23,3.65,6.39.62,9.19-1,34-20.23,95.94-46.07,140.25-87L1022.41,0H937.85C928.14,12.69,916.15,28.52,916.17,28.49Z"/><path class="cls-7" d="M939.16,23.26C918,48.12,902.51,57.65,888.09,71.56c-3.82,3.69-5,5.36-12.72,12.7a1.75,1.75,0,0,0,1,3.11,2,2,0,0,0,1.68-.43c27.62-26.4,8.52-8.77,44.52-37.17,30.69-24.2,24-25,54.56-49.77H960.93A208.33,208.33,0,0,0,939.16,23.26Z"/><path class="cls-6" d="M1182,0c-3.51,6.85-6.9,13.41-11.22,23-44.06,97.77-31.91,213.36-30.51,316.23.76,55.34-7.44,85.62.19,87.95,3.77,1.16,5.7-2.79,12.66-14.74,49.36-84.85,48.75-81.2,59.05-112.32C1248.56,190.24,1240.52,73.19,1238.34,0Z"/><path class="cls-7" d="M1200,54.26c-30.43,170.66,2.74,68.15-43.84,303.89-2.46,11.55-4.78,14-1.51,14.57,3.64.64.21,7.63,33.38-128.26,5.31-21.81,7.69-61.55,8.69-78.9,2.1-36.26,13.41-98.71,24.22-165.56h-11.68C1206.68,15.9,1203.63,33.89,1200,54.26Z"/><path class="cls-6" d="M1322.13,0h-62.58c-3,148.11,54.68,235.56,66.13,269.43,22.56,66.77,19.4,89.88,22.44,93a3.19,3.19,0,0,0,1.68.84c3.37.59,2.89-.69,8-20.19,4.88-18.52,16.61-53.64,17.61-93.93,1.68-67.35-10.16-144.72-50.33-241.79C1324.09,4.83,1323.1,2.4,1322.13,0Z"/><path class="cls-7" d="M1296,0h-12c24.15,114.44,64.15,265.55,63.3,283.39-.12,2.68,4.36,2.84,4.49.17a38.29,38.29,0,0,0,0-8.08C1327,126.33,1308.36,52.31,1296,0Z"/><path class="cls-6" d="M1439,40.4A347.89,347.89,0,0,0,1418.54,0H1347.1a275.4,275.4,0,0,0,10,28.65c6.12,14.88,8.53,25.66,24.25,55,22.12,41.2,31.22,47.59,52.58,70.68,6.89,7.43,18.66,22.72,27.89,32,6.65,6.71,8.12,6.3,8.08,6.29,3.12.55,5.88-1.33,4.75-6.91C1469.32,159.47,1449,64.26,1439,40.4Z"/><path class="cls-7" d="M1422.56,80.62c-6.61-12.54-10-15.28-19.84-36.29-9-19.16-15.85-33.25-21.29-44.33h-12c10.26,20.26,31.24,61.75,27.29,54.44,18.58,34.45,10.86,14.93,27.62,51,4.92,10.58,19.73,34.56,24.31,49.76.29.91,1.57.67,1.43.65,2.05-.62-1.33-7.1-5.71-18.82C1444.35,137,1426.67,88.45,1422.56,80.62Z"/><path class="cls-8" d="M1396.29,53.64Z"/><path class="cls-2" d="M31.18,494.27s47.59,52,120,71.36a272.82,272.82,0,0,0,52.28-54.48C123,505.28,95.24,487.26,95.24,487.26S168,485,229.67,465.3a219.17,219.17,0,0,0,18.79-84.24C172.67,376.77,55.25,398,55.25,398s92-48.54,191.42-47.3a197.92,197.92,0,0,0-7-32c-9.65-31.27-22.7-57.49-38.43-79.14C129.37,269.89,62.69,343.3,62.69,343.3s44-79,106.83-120.11A79.26,79.26,0,0,1,182,216.61a195.22,195.22,0,0,0-46.14-35.37c-68,44.11-109.21,125.85-109.21,125.85S29.08,252.44,93,186.57a187.36,187.36,0,0,1,18.5-16.74,221.19,221.19,0,0,0-46.79-12.35,334.76,334.76,0,0,0-58.2,36.28v392.7a558.49,558.49,0,0,0,53.27,28,296.66,296.66,0,0,0,60.34-27.37C60.77,540.05,31.18,494.27,31.18,494.27Z"/><path class="cls-4" d="M1487,10.6c134.82,2.89,193.81,57.55,193.81,57.55s-127.52-42.88-244.18-18.77A286.16,286.16,0,0,0,1424.9,134a115.91,115.91,0,0,1,19.85-6c108.18-21.94,235.75,15.23,235.75,15.23s-145.54-7.88-252,34.59A363.46,363.46,0,0,0,1449.08,254c60.42-56.11,106-104,108.67-72.33,2.11,24.85-59.72,72.79-85.67,122.39A290.46,290.46,0,0,0,1495.74,341c102.67-104,249-148.26,249-148.26s-144.66,99.11-219.48,181.89A307.66,307.66,0,0,0,1556,400.9c103.15-40.2,215.71-275.09,269.39-205,28.81,37.6-74.73,99.78-10.94,161.84,8.22,8,19.72,9.71,32.24,6.16,13.35-52.39,22.75-95.35,22.75-95.35s6.13,29.4,7.8,77.53c20.85-18.41,39.69-48.75,46.69-86.6V0H1456.09c-2,4.31-3.92,8.1-5.74,12.18A273.68,273.68,0,0,1,1487,10.6Z"/></g></g></svg>