<svg xmlns="http://www.w3.org/2000/svg" viewBox="0 0 104.86 104.86"><defs><style>.cls-1{fill:#fdf9c8;}</style></defs><title>rotate-phone</title><g id="Capa_2" data-name="Capa 2"><g id="Capa_1-2" data-name="Capa 1"><path class="cls-1" d="M95,48.78H91.16a36.54,36.54,0,0,0-35-35.07V9.89a2.12,2.12,0,0,0-3.62-1.5l-5.32,5.33a2.11,2.11,0,0,0,0,3L52.49,22a2.12,2.12,0,0,0,3.62-1.49V16.78a33.45,33.45,0,0,1,32,32H84.32a2.11,2.11,0,0,0-1.49,3.61l5.32,5.32a2.11,2.11,0,0,0,3,0l5.33-5.32A2.12,2.12,0,0,0,95,48.78ZM53,18.23l-3-3,3-3ZM89.65,54.86l-3-3h6Z"/><path class="cls-1" d="M31.09,101.79a1.54,1.54,0,1,0,0,3.07h0a1.54,1.54,0,1,0,0-3.07Z"/><path class="cls-1" d="M38.27,101.79a1.54,1.54,0,1,0,0,3.07h0a1.54,1.54,0,1,0,0-3.07Z"/><path class="cls-1" d="M45.45,101.79A1.54,1.54,0,1,0,47,103.33a1.53,1.53,0,0,0-1.56-1.54Z"/><path class="cls-1" d="M103.33,65.46A1.54,1.54,0,0,0,101.79,67v0a1.54,1.54,0,1,0,1.54-1.56Z"/><path class="cls-1" d="M29.45,84.12a1.53,1.53,0,0,0-1.54-1.52,1.54,1.54,0,1,0,1.54,1.54Z"/><path class="cls-1" d="M27.91,97a1.54,1.54,0,0,0-1.54,1.53v0a1.54,1.54,0,0,0,3.08,0v0A1.54,1.54,0,0,0,27.91,97Z"/><path class="cls-1" d="M29.45,91.3a1.53,1.53,0,0,0-1.54-1.52,1.54,1.54,0,1,0,1.54,1.54Z"/><path class="cls-1" d="M103.33,72.64a1.54,1.54,0,0,0-1.54,1.54v0a1.54,1.54,0,0,0,3.07,0v0A1.53,1.53,0,0,0,103.33,72.64Z"/><path class="cls-1" d="M74.17,101.79a1.54,1.54,0,0,0,0,3.07h0a1.54,1.54,0,1,0,0-3.07Z"/><path class="cls-1" d="M69.14,66a1.53,1.53,0,0,0,1.53-1.54A1.55,1.55,0,1,0,69.12,66Z"/><path class="cls-1" d="M81.35,101.79a1.54,1.54,0,1,0,1.56,1.54,1.54,1.54,0,0,0-1.54-1.54Z"/><path class="cls-1" d="M76.32,66a1.52,1.52,0,0,0,1.52-1.54A1.54,1.54,0,1,0,76.3,66Z"/><path class="cls-1" d="M67,101.79a1.54,1.54,0,1,0,0,3.07h0a1.54,1.54,0,1,0,0-3.07Z"/><path class="cls-1" d="M62,66a1.52,1.52,0,0,0,1.52-1.54A1.54,1.54,0,1,0,61.94,66Z"/><path class="cls-1" d="M52.63,101.79a1.54,1.54,0,1,0,1.56,1.54,1.53,1.53,0,0,0-1.56-1.54Z"/><path class="cls-1" d="M54.78,66a1.54,1.54,0,0,0,0-3.08h0a1.54,1.54,0,1,0,0,3.08Z"/><path class="cls-1" d="M59.81,101.79a1.54,1.54,0,1,0,1.56,1.54,1.53,1.53,0,0,0-1.56-1.54Z"/><path class="cls-1" d="M47.6,66a1.54,1.54,0,0,0,0-3.08h0a1.54,1.54,0,1,0,0,3.08Z"/><path class="cls-1" d="M88.53,101.79a1.54,1.54,0,1,0,1.56,1.54,1.54,1.54,0,0,0-1.54-1.54Z"/><path class="cls-1" d="M95.71,101.79a1.54,1.54,0,1,0,1.56,1.54,1.54,1.54,0,0,0-1.54-1.54Z"/><path class="cls-1" d="M83.5,66A1.53,1.53,0,0,0,85,64.46,1.55,1.55,0,1,0,83.48,66Z"/><path class="cls-1" d="M103.33,79.82a1.54,1.54,0,0,0-1.54,1.54v0a1.54,1.54,0,1,0,1.54-1.56Z"/><path class="cls-1" d="M90.68,66a1.54,1.54,0,1,0,0-3.08h0a1.54,1.54,0,1,0,0,3.08Z"/><path class="cls-1" d="M103.82,103.85a1.53,1.53,0,0,0-2.13-2.21l0,0a1.54,1.54,0,0,0,1.08,2.63A1.52,1.52,0,0,0,103.82,103.85Z"/><path class="cls-1" d="M103.33,87a1.54,1.54,0,0,0-1.54,1.54v0A1.54,1.54,0,1,0,103.33,87Z"/><path class="cls-1" d="M103.33,94.18a1.54,1.54,0,0,0-1.54,1.54v0a1.54,1.54,0,1,0,1.54-1.56Z"/><path class="cls-1" d="M97.86,66a1.53,1.53,0,0,0,1.53-1.54A1.55,1.55,0,1,0,97.84,66Z"/><path class="cls-1" d="M41.94,75V42.83a1.54,1.54,0,1,0-3.07,0V75a.44.44,0,0,1-.43.43H24.55a1.54,1.54,0,0,0,0,3.07H38.44A3.5,3.5,0,0,0,41.94,75Z"/><path class="cls-1" d="M3.5,78.49H17.38a1.54,1.54,0,1,0,0-3.07H3.5A.44.44,0,0,1,3.07,75V3.5a.43.43,0,0,1,.43-.43H38.44a.43.43,0,0,1,.43.43V35.66a1.54,1.54,0,1,0,3.07,0V3.5A3.5,3.5,0,0,0,38.44,0H3.5A3.5,3.5,0,0,0,0,3.5V75A3.5,3.5,0,0,0,3.5,78.49Z"/></g></g></svg>