<svg xmlns="http://www.w3.org/2000/svg" viewBox="0 0 43.54 41.23"><defs><style>.cls-1{fill:#fff;}</style></defs><title>map-icon</title><g id="Capa_2" data-name="Capa 2"><g id="Capa_1-2" data-name="Capa 1"><path class="cls-1" d="M42.76,5.1,29.54.07h-.79L14.37,5,1.55.07A1.15,1.15,0,0,0,.07.78,1,1,0,0,0,0,1.16V35a1.15,1.15,0,0,0,.78,1.08l13.21,5h0a1.05,1.05,0,0,0,.78,0h0l14.38-4.89L42,41.16a1.16,1.16,0,0,0,1.49-.71,1.59,1.59,0,0,0,.07-.38V6.19A1.18,1.18,0,0,0,42.76,5.1ZM2.33,2.84,13.22,7V38.38L2.33,34.23ZM15.55,7,28,2.78V34.2L15.55,38.44ZM41.2,38.38,30.32,34.23V2.85L41.2,7Z"/></g></g></svg>