<svg xmlns="http://www.w3.org/2000/svg" viewBox="0 0 1437 547.08"><defs><style>.cls-1{fill:#c8e1cc;opacity:0.8;}.cls-2{font-size:30px;fill:#2e4e41;font-family:Rifton-Normal, Rifton;}.cls-3{letter-spacing:0.08em;}.cls-4{letter-spacing:0.09em;}.cls-5{letter-spacing:0.08em;}.cls-6{letter-spacing:0.02em;}.cls-7{letter-spacing:-0.05em;}.cls-8{letter-spacing:0.06em;}.cls-9{letter-spacing:0.06em;}.cls-10{letter-spacing:0.06em;}.cls-11{letter-spacing:0.06em;}.cls-12{letter-spacing:-0.02em;}.cls-13{font-size:25px;font-family:DINPro-Bold, DINPro;font-weight:700;}.cls-14{letter-spacing:-0.07em;}.cls-15{letter-spacing:-0.03em;}.cls-16{letter-spacing:-0.01em;}.cls-17{letter-spacing:-0.02em;}.cls-18{letter-spacing:-0.01em;}.cls-19{letter-spacing:-0.02em;}.cls-20{letter-spacing:-0.03em;}.cls-21{letter-spacing:0em;}.cls-22{letter-spacing:-0.02em;}.cls-23{letter-spacing:-0.02em;}.cls-24{letter-spacing:-0.07em;}.cls-25{letter-spacing:0em;}.cls-26{letter-spacing:0em;}</style></defs><title>mensaje</title><g id="Capa_2" data-name="Capa 2"><g id="Capa_1-2" data-name="Capa 1"><rect class="cls-1" width="1437" height="511.76" rx="159.42"/><text class="cls-2" transform="translate(300.4 86.2)"><tspan class="cls-3">La re<tspan class="cls-4" x="119.89" y="0">c</tspan><tspan class="cls-5" x="151.76" y="0">oncili</tspan><tspan class="cls-6" x="293.12" y="0">a</tspan><tspan class="cls-5" x="321.37" y="0">ción es una invi</tspan><tspan class="cls-7" x="691.16" y="0">t</tspan><tspan class="cls-6" x="713.03" y="0">a</tspan><tspan class="cls-5" x="741.29" y="0">ción a </tspan></tspan><tspan class="cls-4"><tspan x="-36.94" y="39.2">c</tspan><tspan class="cls-5" x="-5.07" y="39.2">one</tspan><tspan class="cls-8" x="82.71" y="39.2">c</tspan><tspan class="cls-7" x="113.69" y="39.2">t</tspan><tspan class="cls-5" x="135.56" y="39.2">arnos </tspan><tspan x="296.08" y="39.2">c</tspan><tspan class="cls-5" x="327.95" y="39.2">on a</tspan><tspan class="cls-9" x="430.73" y="39.2">l</tspan><tspan class="cls-5" x="452.92" y="39.2">guien o a</tspan><tspan class="cls-9" x="667.92" y="39.2">l</tspan><tspan class="cls-5" x="690.11" y="39.2">go que no </tspan></tspan><tspan class="cls-3"><tspan x="-106.38" y="78.4">pen</tspan><tspan class="cls-10" x="-21.44" y="78.4">s</tspan><tspan x="6.04" y="78.4">amos que podríamos h</tspan><tspan class="cls-6" x="535.18" y="78.4">a</tspan><tspan x="563.44" y="78.4">cer</tspan><tspan class="cls-11" x="650.9" y="78.4">l</tspan><tspan x="673.09" y="78.4">o, </tspan><tspan class="cls-12" x="727.45" y="78.4">p</tspan><tspan class="cls-5" x="753.34" y="78.4">arte de la </tspan><tspan x="-52.35" y="117.6">re</tspan><tspan class="cls-4" x="3.53" y="117.6">c</tspan><tspan class="cls-5" x="35.4" y="117.6">oncili</tspan><tspan class="cls-6" x="176.76" y="117.6">a</tspan><tspan x="205.01" y="117.6">ción es aprender a </tspan><tspan class="cls-4" x="669.47" y="117.6">c</tspan><tspan x="701.34" y="117.6">onfiar y a </tspan></tspan><tspan class="cls-4"><tspan x="318.84" y="156.8">co</tspan><tspan class="cls-3" x="382.59" y="156.8">operar. </tspan></tspan><tspan class="cls-13"><tspan class="cls-14" x="-118.98" y="226">T</tspan><tspan x="-106.35" y="226">e p</tspan><tspan class="cls-15" x="-72.85" y="226">r</tspan><tspan x="-62.25" y="226">oponemos </tspan><tspan class="cls-16" x="60.72" y="226">e</tspan><tspan x="74.27" y="226">xp</tspan><tspan class="cls-17" x="101.45" y="226">l</tspan><tspan x="109.07" y="226">o</tspan><tspan class="cls-18" x="122.65" y="226">r</tspan><tspan x="133.77" y="226">ar nu</tspan><tspan class="cls-18" x="192.95" y="226">ev</tspan><tspan x="218.47" y="226">as </tspan><tspan class="cls-19" x="250.14" y="226">f</tspan><tspan x="258.29" y="226">ormas de enf</tspan><tspan class="cls-20" x="406.92" y="226">r</tspan><tspan x="417.52" y="226">en</tspan><tspan class="cls-21" x="445.54" y="226">t</tspan><tspan x="454.27" y="226">ar la di</tspan><tspan class="cls-19" x="532.97" y="226">f</tspan><tspan x="541.12" y="226">e</tspan><tspan class="cls-15" x="554.82" y="226">r</tspan><tspan x="565.42" y="226">encia, de </tspan><tspan class="cls-22" x="671.97" y="226">c</tspan><tspan x="683.52" y="226">ono</tspan><tspan class="cls-23" x="724.99" y="226">c</tspan><tspan x="736.54" y="226">er ot</tspan><tspan class="cls-18" x="789.79" y="226">r</tspan><tspan x="800.92" y="226">as </tspan><tspan class="cls-22" x="832.59" y="226">c</tspan><tspan x="844.14" y="226">o</tspan><tspan class="cls-18" x="857.72" y="226">s</tspan><tspan x="869.99" y="226">tumb</tspan><tspan class="cls-20" x="929.02" y="226">r</tspan><tspan x="939.62" y="226">es. </tspan><tspan class="cls-24" x="978.77" y="226">T</tspan><tspan x="991.39" y="226">e </tspan><tspan class="cls-20" x="-138.84" y="256">r</tspan><tspan x="-128.24" y="256">e</tspan><tspan class="cls-21" x="-114.54" y="256">t</tspan><tspan x="-105.82" y="256">amos a abrir </tspan><tspan class="cls-25" x="43.26" y="256">c</tspan><tspan x="55.16" y="256">aminos di</tspan><tspan class="cls-18" x="164.4" y="256">v</tspan><tspan x="176.48" y="256">e</tspan><tspan class="cls-18" x="190.18" y="256">r</tspan><tspan x="201.3" y="256">sos pa</tspan><tspan class="cls-18" x="273.08" y="256">r</tspan><tspan x="284.2" y="256">a ap</tspan><tspan class="cls-20" x="330.7" y="256">r</tspan><tspan class="cls-17" x="341.3" y="256">o</tspan><tspan x="354.38" y="256">xima</tspan><tspan class="cls-18" x="409.68" y="256">r</tspan><tspan x="420.8" y="256">se a una pe</tspan><tspan class="cls-18" x="547.48" y="256">r</tspan><tspan x="558.6" y="256">sona, a un </tspan><tspan class="cls-26" x="678.75" y="256">t</tspan><tspan x="687.47" y="256">erri</tspan><tspan class="cls-21" x="730.8" y="256">t</tspan><tspan x="739.52" y="256">orio o a una situación </tspan><tspan class="cls-23" x="985.5" y="256">c</tspan><tspan x="997.05" y="256">on </tspan><tspan x="186.57" y="286">la in</tspan><tspan class="cls-21" x="235.04" y="286">t</tspan><tspan x="243.77" y="286">ención de </tspan><tspan class="cls-22" x="357.89" y="286">c</tspan><tspan x="369.44" y="286">on</tspan><tspan class="cls-18" x="397.34" y="286">s</tspan><tspan x="409.62" y="286">truir un biene</tspan><tspan class="cls-18" x="565.22" y="286">s</tspan><tspan class="cls-26" x="577.49" y="286">t</tspan><tspan x="586.22" y="286">ar </tspan><tspan class="cls-23" x="616.74" y="286">c</tspan><tspan x="628.29" y="286">omún.</tspan><tspan x="144.88" y="346">¡</tspan><tspan class="cls-14" x="153.55" y="346">T</tspan><tspan x="166.18" y="346">e invi</tspan><tspan class="cls-21" x="226.08" y="346">t</tspan><tspan x="234.81" y="346">amos a descubrir y ab</tspan><tspan class="cls-18" x="482.6" y="346">r</tspan><tspan x="493.73" y="346">azar nue</tspan><tspan class="cls-18" x="591.9" y="346">s</tspan><tspan x="604.18" y="346">t</tspan><tspan class="cls-20" x="612.98" y="346">r</tspan><tspan x="623.58" y="346">o en</tspan><tspan class="cls-21" x="670.98" y="346">t</tspan><tspan x="679.7" y="346">orno!</tspan><tspan x="443.05" y="376"> </tspan></tspan></text></g></g></svg>