<svg xmlns="http://www.w3.org/2000/svg" viewBox="0 0 544.19 444.92"><defs><style>.cls-1{fill:#c8e1cc;opacity:0.8;}.cls-2{font-size:20px;font-family:Rifton-Caps, Rifton;letter-spacing:0.08em;}.cls-14,.cls-2{fill:#2e4e41;}.cls-3{letter-spacing:0.09em;}.cls-4{letter-spacing:0.08em;}.cls-5{letter-spacing:0.03em;}.cls-6{letter-spacing:-0.06em;}.cls-7{letter-spacing:0.03em;}.cls-8{letter-spacing:0.06em;}.cls-9{letter-spacing:0.06em;}.cls-10{letter-spacing:0.06em;}.cls-11{letter-spacing:0.07em;}.cls-12{letter-spacing:-0.02em;}.cls-13{letter-spacing:0.09em;}.cls-14{font-size:15.66px;font-family:DINPro-Bold, DINPro;font-weight:700;}.cls-15{letter-spacing:-0.07em;}.cls-16{letter-spacing:-0.03em;}.cls-17{letter-spacing:-0.01em;}.cls-18{letter-spacing:-0.02em;}.cls-19{letter-spacing:-0.01em;}.cls-20{letter-spacing:-0.01em;}.cls-21{letter-spacing:-0.02em;}.cls-22{letter-spacing:0em;}.cls-23{letter-spacing:-0.02em;}.cls-24{letter-spacing:0em;}.cls-25{letter-spacing:-0.02em;}.cls-26{letter-spacing:-0.02em;}.cls-27{letter-spacing:-0.03em;}.cls-28{letter-spacing:0em;}</style></defs><title>mensaje-p</title><g id="Capa_2" data-name="Capa 2"><g id="Capa_1-2" data-name="Capa 1"><rect class="cls-1" width="544.19" height="444.92" rx="49.7"/><text class="cls-2" transform="translate(74.69 79.22)">La re<tspan class="cls-3" x="80.23" y="0">c</tspan><tspan class="cls-4" x="101.47" y="0">oncili</tspan><tspan class="cls-5" x="195.71" y="0">a</tspan><tspan class="cls-4" x="214.75" y="0">ción es una </tspan><tspan x="-3.21" y="25.04">invi</tspan><tspan class="cls-6" x="54.08" y="25.04">t</tspan><tspan class="cls-5" x="68.65" y="25.04">a</tspan><tspan class="cls-4" x="87.69" y="25.04">ción </tspan><tspan class="cls-7" x="165.86" y="25.04">a</tspan><tspan class="cls-3" x="184.9" y="25.04">c</tspan><tspan class="cls-4" x="206.15" y="25.04">one</tspan><tspan class="cls-8" x="264.67" y="25.04">c</tspan><tspan class="cls-6" x="285.32" y="25.04">t</tspan><tspan class="cls-4" x="299.89" y="25.04">arnos </tspan><tspan class="cls-3"><tspan x="-11.6" y="50.08">c</tspan><tspan class="cls-4" x="9.65" y="50.08">on a</tspan><tspan class="cls-9" x="78.17" y="50.08">l</tspan><tspan class="cls-4" x="92.76" y="50.08">guien o a</tspan><tspan class="cls-9" x="236.31" y="50.08">l</tspan><tspan class="cls-4" x="250.9" y="50.08">go que no </tspan></tspan><tspan x="-2.21" y="75.11">pen</tspan><tspan class="cls-10" x="54.42" y="75.11">s</tspan><tspan x="72.74" y="75.11">amos que podríamos </tspan><tspan x="34.86" y="100.15">h</tspan><tspan class="cls-7" x="54.46" y="100.15">a</tspan><tspan x="73.5" y="100.15">cer</tspan><tspan class="cls-9" x="132.11" y="100.15">l</tspan><tspan class="cls-11" x="146.71" y="100.15">o</tspan><tspan x="167.56" y="100.15">, </tspan><tspan class="cls-12" x="182.76" y="100.15">p</tspan><tspan x="200.01" y="100.15">arte de la </tspan><tspan x="-39.17" y="125.19">re</tspan><tspan class="cls-3" x="-1.61" y="125.19">c</tspan><tspan class="cls-4" x="19.64" y="125.19">oncili</tspan><tspan class="cls-5" x="113.88" y="125.19">a</tspan><tspan x="132.92" y="125.19">ción es aprender a </tspan><tspan class="cls-3"><tspan x="19.88" y="150.23">c</tspan><tspan class="cls-4" x="41.13" y="150.23">onfiar y a </tspan><tspan class="cls-13" x="208.7" y="150.23">co</tspan><tspan class="cls-4" x="251.2" y="150.23">operar. </tspan></tspan></text><text class="cls-14" transform="translate(24.75 275.77)"><tspan class="cls-15">T</tspan><tspan x="7.91" y="0">e p</tspan><tspan class="cls-16" x="28.89" y="0">r</tspan><tspan x="35.52" y="0">oponemos </tspan><tspan class="cls-17" x="112.53" y="0">e</tspan><tspan x="121.02" y="0">xp</tspan><tspan class="cls-18" x="138.04" y="0">l</tspan><tspan x="142.81" y="0">o</tspan><tspan class="cls-19" x="151.31" y="0">r</tspan><tspan x="158.28" y="0">ar nu</tspan><tspan class="cls-20" x="195.34" y="0">ev</tspan><tspan x="211.32" y="0">as </tspan><tspan class="cls-21" x="231.16" y="0">f</tspan><tspan x="236.26" y="0">ormas de enf</tspan><tspan class="cls-16" x="329.33" y="0">r</tspan><tspan x="335.97" y="0">en</tspan><tspan class="cls-22" x="353.52" y="0">t</tspan><tspan x="358.99" y="0">ar la di</tspan><tspan class="cls-23" x="408.27" y="0">f</tspan><tspan class="cls-24" x="413.37" y="0">e</tspan><tspan class="cls-16" x="421.95" y="0">r</tspan><tspan x="428.59" y="0">encia, de </tspan><tspan class="cls-25" x="3.08" y="18.79">c</tspan><tspan x="10.31" y="18.79">ono</tspan><tspan class="cls-26" x="36.28" y="18.79">c</tspan><tspan x="43.52" y="18.79">er ot</tspan><tspan class="cls-20" x="76.86" y="18.79">r</tspan><tspan x="83.83" y="18.79">as </tspan><tspan class="cls-25" x="103.66" y="18.79">c</tspan><tspan x="110.9" y="18.79">o</tspan><tspan class="cls-19" x="119.4" y="18.79">s</tspan><tspan x="127.09" y="18.79">tumb</tspan><tspan class="cls-27" x="164.05" y="18.79">r</tspan><tspan x="170.69" y="18.79">es. </tspan><tspan class="cls-15" x="195.2" y="18.79">T</tspan><tspan x="203.11" y="18.79">e </tspan><tspan class="cls-16" x="215.32" y="18.79">r</tspan><tspan x="221.96" y="18.79">e</tspan><tspan class="cls-22" x="230.54" y="18.79">t</tspan><tspan x="236" y="18.79">amos a abrir </tspan><tspan class="cls-28" x="329.36" y="18.79">c</tspan><tspan x="336.81" y="18.79">aminos di</tspan><tspan class="cls-19" x="405.23" y="18.79">v</tspan><tspan class="cls-24" x="412.79" y="18.79">e</tspan><tspan class="cls-19" x="421.37" y="18.79">r</tspan><tspan x="428.33" y="18.79">sos pa</tspan><tspan class="cls-20" x="473.28" y="18.79">r</tspan><tspan x="480.25" y="18.79">a </tspan><tspan x="11.36" y="37.57">ap</tspan><tspan class="cls-16" x="28.49" y="37.57">r</tspan><tspan class="cls-18" x="35.12" y="37.57">o</tspan><tspan x="43.31" y="37.57">xima</tspan><tspan class="cls-20" x="77.94" y="37.57">r</tspan><tspan x="84.91" y="37.57">se a una pe</tspan><tspan class="cls-19" x="164.24" y="37.57">r</tspan><tspan x="171.2" y="37.57">sona, a un </tspan><tspan class="cls-22" x="246.45" y="37.57">t</tspan><tspan x="251.91" y="37.57">erri</tspan><tspan class="cls-22" x="279.04" y="37.57">t</tspan><tspan x="284.5" y="37.57">orio o a una situación </tspan><tspan class="cls-25" x="438.54" y="37.57">c</tspan><tspan x="445.78" y="37.57">on la </tspan><tspan x="93.76" y="56.36">in</tspan><tspan class="cls-22" x="107.04" y="56.36">t</tspan><tspan x="112.5" y="56.36">ención de </tspan><tspan class="cls-25" x="183.97" y="56.36">c</tspan><tspan x="191.2" y="56.36">on</tspan><tspan class="cls-19" x="208.68" y="56.36">s</tspan><tspan x="216.36" y="56.36">truir un biene</tspan><tspan class="cls-20" x="313.8" y="56.36">s</tspan><tspan class="cls-22" x="321.49" y="56.36">t</tspan><tspan x="326.96" y="56.36">ar </tspan><tspan class="cls-25" x="346.07" y="56.36">c</tspan><tspan x="353.3" y="56.36">omún.</tspan><tspan x="59.12" y="93.94">¡</tspan><tspan class="cls-15" x="64.55" y="93.94">T</tspan><tspan x="72.46" y="93.94">e invi</tspan><tspan class="cls-22" x="109.97" y="93.94">t</tspan><tspan x="115.43" y="93.94">amos a descubrir y ab</tspan><tspan class="cls-20" x="270.61" y="93.94">r</tspan><tspan x="277.58" y="93.94">azar nue</tspan><tspan class="cls-20" x="339.06" y="93.94">s</tspan><tspan x="346.74" y="93.94">t</tspan><tspan class="cls-16" x="352.26" y="93.94">r</tspan><tspan x="358.89" y="93.94">o en</tspan><tspan class="cls-22" x="388.58" y="93.94">t</tspan><tspan x="394.04" y="93.94">orno!</tspan></text></g></g></svg>