<svg xmlns="http://www.w3.org/2000/svg" viewBox="0 0 100.16 120.74"><defs><style>.cls-1{fill:#fdf9c8;}.cls-2{fill:#1c3226;}</style></defs><title>Recurso 1</title><g id="Capa_2" data-name="Capa 2"><g id="Capa_1-2" data-name="Capa 1"><g id="Capa_2-2" data-name="Capa 2"><g id="Capa_1-2-2" data-name="Capa 1-2"><path class="cls-1" d="M85.57,14.67A50,50,0,0,0,14.62,85.25h0L50.1,120.74,85.57,85.26A50,50,0,0,0,85.57,14.67Z"/><circle class="cls-2" cx="50.08" cy="49.02" r="37.05"/><path class="cls-1" d="M38.29,56.53l8.1,8.09A3.64,3.64,0,0,0,49,65.73a3.84,3.84,0,0,0,1.46-.29A3.68,3.68,0,0,0,52.78,62V55.06a6.25,6.25,0,0,0,0-12.05V36a3.74,3.74,0,0,0-6.39-2.64l-8.1,8.09H33.36a5,5,0,0,0-5,5v5.06a5,5,0,0,0,5,5ZM54.91,49a3.83,3.83,0,0,1-2.16,3.44V45.56A3.82,3.82,0,0,1,54.91,49ZM40,43.17l8.1-8.1a1.31,1.31,0,0,1,1.85,0h0a1.27,1.27,0,0,1,.39.92V61.9A1.33,1.33,0,0,1,49,63.22h0a1.31,1.31,0,0,1-.93-.39L40,54.74Zm-9.2,8.35V46.46a2.58,2.58,0,0,1,2.58-2.58h4.2V54.1h-4.2a2.59,2.59,0,0,1-2.58-2.58Z"/><path class="cls-1" d="M59.05,37.07A1.24,1.24,0,1,0,57.5,39h0a13,13,0,0,1,1.79,18.3h0a13.24,13.24,0,0,1-1.79,1.8A1.21,1.21,0,0,0,59,61h0l.08-.07A15.48,15.48,0,0,0,61.2,39.16,16.34,16.34,0,0,0,59.05,37.07Z"/><path class="cls-1" d="M64.19,33.07A1.21,1.21,0,1,0,62.6,34.9h.06a18.24,18.24,0,0,1,2.5,25.66,18.46,18.46,0,0,1-2.5,2.5,1.2,1.2,0,0,0-.17,1.7h0a1.2,1.2,0,0,0,1,.44,1.17,1.17,0,0,0,.8-.28,20.64,20.64,0,0,0,2.86-29.05h0A20.13,20.13,0,0,0,64.29,33Z"/></g></g></g></g></svg>