<svg xmlns="http://www.w3.org/2000/svg" viewBox="0 0 100.17 120.74"><defs><style>.cls-1{fill:#fdf9c8;}.cls-2{fill:#1c3226;}</style></defs><title>sound-icon</title><g id="Capa_2" data-name="Capa 2"><g id="Capa_1-2" data-name="Capa 1"><path class="cls-1" d="M85.57,14.67a50.23,50.23,0,0,0-70.95,0,49.91,49.91,0,0,0,0,70.59L50.1,120.74,85.57,85.26A50,50,0,0,0,85.57,14.67Z"/><circle class="cls-2" cx="50.08" cy="49.02" r="37.05"/><path class="cls-1" d="M38.29,56.53l8.1,8.09A3.65,3.65,0,0,0,49,65.73a3.88,3.88,0,0,0,1.46-.29A3.68,3.68,0,0,0,52.78,62V55.06a6.25,6.25,0,0,0,0-12.05v-7a3.74,3.74,0,0,0-6.39-2.64l-8.1,8.09H33.36a5,5,0,0,0-5,5v5.06a5,5,0,0,0,5,5ZM54.91,49a3.84,3.84,0,0,1-2.16,3.44V45.56A3.83,3.83,0,0,1,54.91,49ZM40,43.17l8.1-8.1a1.31,1.31,0,0,1,1.86,0,1.29,1.29,0,0,1,.39.92V61.9A1.33,1.33,0,0,1,49,63.22a1.29,1.29,0,0,1-.93-.39L40,54.74Zm-9.2,8.35V46.46a2.58,2.58,0,0,1,2.58-2.58h4.2V54.1h-4.2a2.58,2.58,0,0,1-2.58-2.58Z"/><path class="cls-1" d="M59.05,37.07A1.22,1.22,0,1,0,57.5,39h0A13,13,0,0,1,59.29,57.3a13.24,13.24,0,0,1-1.79,1.8A1.21,1.21,0,1,0,59,61l.08-.07a15.48,15.48,0,0,0,2.12-21.77A16.33,16.33,0,0,0,59.05,37.07Z"/><path class="cls-1" d="M64.19,33.07A1.21,1.21,0,1,0,62.6,34.9l.06,0a18.24,18.24,0,0,1,2.5,25.66,18.46,18.46,0,0,1-2.5,2.5,1.21,1.21,0,0,0-.17,1.71,1.18,1.18,0,0,0,1,.44,1.12,1.12,0,0,0,.8-.28,20.64,20.64,0,0,0,2.85-29.06,20.13,20.13,0,0,0-2.85-2.84Z"/></g></g></svg>